<?xml version="1.0" encoding="utf-8"?>
<!-- Generator: Adobe Illustrator 23.0.3, SVG Export Plug-In . SVG Version: 6.00 Build 0)  -->
<svg version="1.1"
	 id="logosvg.com" inkscape:version="0.91 r13725" sodipodi:docname="American_Express_2018.svg" xmlns:cc="http://creativecommons.org/ns#" xmlns:dc="http://purl.org/dc/elements/1.1/" xmlns:inkscape="http://www.inkscape.org/namespaces/inkscape" xmlns:rdf="http://www.w3.org/1999/02/22-rdf-syntax-ns#" xmlns:sodipodi="http://sodipodi.sourceforge.net/DTD/sodipodi-0.dtd" xmlns:svg="http://www.w3.org/2000/svg"
	 xmlns="http://www.w3.org/2000/svg" xmlns:xlink="http://www.w3.org/1999/xlink" x="0px" y="0px" viewBox="0 0 400 300"
	 style="enable-background:new 0 0 400 300;" xml:space="preserve">
<style type="text/css">
	.st0{fill:#016FD0;}
</style>
<path id="blue" class="st0" d="M330.4135,205.2351c5.1213-0.0441,9.5495-3.0385,9.5495-3.0385v88.1155H59.3385v-142.808h12.9968
	l2.7745-6.9451h7.4512l2.7943,6.9451h105.7225v-6.9451l5.6429,6.9451h28.4314v-4.8899c0,0,4.8242,4.8899,12.3709,4.8899h18.8568
	l2.7507-6.9451h7.475l2.7962,6.9451h27.8055v-7.8132l4.9918,7.8132h19.0989v-44.0578h-19.0989v7.788l-5.2088-7.788h-18.9254v13.6731
	l-5.8669-13.558l-32.9387-0.1151c-8.7705,0-14.1072,4.9918-14.1072,4.9918v-4.9918H123.6347l-3.4454,9.9293l-3.5539-9.9293H94.0204
	v13.7378l-5.97-13.7378H69.858l-10.5195,24.5248V9.6878H339.963v151.4894H170.6384l-5.1705,6.5246l-5.0049-6.5246h-46.6491v44.0579
	h46.3564l5.0745-6.6645l4.9978,6.6645H198.24v-10.2006h6.294c5.4609,0,7.9868-1.6549,7.9868-1.6549v11.8555h18.4913V198.29
	l5.6429,6.9451H330.4135z M68.6302,141.8668h-4.3897h-4.8478l4.0397-9.3924l10.1489-23.5967v-0.0001h10.7567l14.175,32.9891h-9.441
	l-2.6044-6.6059H71.2482L68.6302,141.8668z M74.1782,128.0988h9.2917l-4.6391-11.5435L74.1782,128.0988z M140.7261,141.8612
	v-32.9891h-13.022l-7.4523,21.3181l-7.6351-21.2693l-13.127-0.0488v32.9891h8.2473v-24.3077l8.7667,24.3077h7.2328l8.7423-24.3077
	v24.3077H140.7261z M173.2811,116.2513v-7.3792H146.369v32.9891l26.9122,0.0001v-7.1621h-18.5781v-5.8599h18.144v-6.9451h-18.144
	v-5.6429H173.2811z M198.8911,129.7129l10.8517,12.1539h-10.0785l-9.8886-11.7198h-3.4725v11.7198h-8.2473v-32.9891v-0.0001h18.3529
	c6.0812,0,11.5299,3.7604,11.5299,10.7025C207.9387,125.5146,203.3447,129.3371,198.8911,129.7129z M199.6371,119.7294
	c0-1.7036-1.6451-3.4725-3.9066-3.4725h-9.4274v6.9451h9.5495C197.5056,123.2019,199.6371,121.9211,199.6371,119.7294z
	 M211.3054,108.8722v32.9891h8.4209v-32.9891H211.3054z M223.7415,125.5023c0,9.4302,5.3397,16.3589,14.1343,16.3589h1.8177
	l3.4725-7.2055h-2.1703c-5.2524,0-8.8984-2.6833-8.8984-9.072c0-5.3799,3.1885-8.8984,7.697-8.8984h9.4487v-7.8132h-9.1154
	C229.0213,108.8722,223.7415,115.8393,223.7415,125.5023z M243.4508,141.8668l14.1885-32.9891v-0.0001h10.7567l14.175,32.9891
	h-9.441l-2.6044-6.6059h-15.2195l-2.618,6.6059H243.4508z M258.2362,128.0988h9.2917l-4.6391-11.5435L258.2362,128.0988z
	 M305.5088,141.8612h10.1464v-32.9891h-8.2473v20.7267l-13.3882-20.7267h-10.4854v32.9891h8.2473v-21.2693L305.5088,141.8612z
	 M146.369,173.9823v-7.3792h-26.9122v32.9891l26.9122,0.0001v-7.1621h-18.5781v-5.8599h18.144v-6.9451h-18.144v-5.6428H146.369z
	 M278.2386,173.9823v-7.3792h-26.9122v32.9891l26.9122,0.0001v-7.1621h-18.5781v-5.8599h18.0572v-6.9451h-18.0572v-5.6428H278.2386z
	 M173.4982,166.6031l-8.0167,10.3226l-7.9896-10.3226h-10.3905l13.4154,16.698l-13.1034,16.2911l10.2413-0.0001l7.569-10.1599
	l7.7576,10.1599h10.3889l-13.1275-16.4945l13.239-16.4946H173.4982z M202.5671,166.6086c7.475,0,11.8419,4.8177,11.8419,11.0959
	c0,7.5786-5.5679,11.4756-12.9135,11.4756h-8.6813v10.4176h-8.4643v-32.9891H202.5671z M201.9567,174.0692h-9.1425v7.5962h9.1154
	c2.4088,0,4.0965-1.5964,4.0965-3.7981C206.0261,175.5236,204.3298,174.0692,201.9567,174.0692z M238.8253,187.4383l10.8517,12.1539
	h-10.0785l-9.8886-11.7198h-3.4725v11.7198h-8.2473v-32.9891h18.3529c6.0812,0,11.5299,3.7604,11.5299,10.7025
	C247.8729,183.24,243.2789,187.0624,238.8253,187.4383z M239.5713,177.4547c0-1.7035-1.6451-3.4725-3.9066-3.4725h-9.4274v6.945
	h9.5495C237.4398,180.9273,239.5713,179.6465,239.5713,177.4547z M298.5638,192.4301h-16.5054v7.1621h17.577
	c7.2621,0,10.7568-4.7273,10.7568-10.499c0-5.3685-3.1361-9.4681-10.3633-9.4681h-7.8132c-2.0284,0-3.0385-1.5081-3.0385-2.8757
	c0-1.3305,0.8173-2.7238,3.4725-2.7238h13.8901l3.4726-7.4225h-16.0605c-9.6342,0-12.9407,5.101-12.9407,10.3905
	c0,5.9304,3.6107,9.8804,10.094,9.8804h7.4586c2.4456,0,3.4996,1.4021,3.4996,2.7889
	C302.0634,191.1103,301.006,192.4301,298.5638,192.4301z M339.963,185.1187c-1.2784-3.2881-4.3695-5.4936-9.6648-5.4936h-2.1419
	h-5.6713c-2.0284,0-3.0385-1.5081-3.0385-2.8757c0-1.3305,0.8173-2.7238,3.4725-2.7238h8.8209h5.0692l3.1538-6.7413l0.3187-0.6813
	h-0.3187h-3.4725h-12.2692c-9.6341,0-12.9406,5.101-12.9406,10.3905c0,5.9304,3.6107,9.8804,10.094,9.8804h7.4586
	c0.0422,0,0.0762,0.0078,0.1176,0.0087c2.3564,0.0471,3.3821,1.4174,3.3821,2.7802c0,0.492-0.1332,0.9645-0.3904,1.3802
	c-0.4995,0.8072-1.4972,1.387-3.1093,1.387h-16.5054v7.1621h17.5769c2.8324,0,5.0839-0.726,6.7863-1.9457
	c1.5426-1.1052,2.632-2.6169,3.272-4.3817c0.4647-1.2811,0.6985-2.6909,0.6985-4.1716
	C340.6615,187.6581,340.4294,186.3184,339.963,185.1187z"/>
</svg>
